<mxfile host="app.diagrams.net" modified="2023-12-02T17:56:49.418Z" agent="Mozilla/5.0 (Macintosh; Intel Mac OS X 10_15_7) AppleWebKit/537.36 (KHTML, like Gecko) Chrome/119.0.0.0 Safari/537.36" etag="whbFDb_eWMAakw8ddBlu" version="22.1.5" type="github">
  <diagram name="Página-1" id="aUQhiJRNW4-tM3lH27NO">
    <mxGraphModel dx="2069" dy="831" grid="1" gridSize="10" guides="1" tooltips="1" connect="1" arrows="1" fold="1" page="1" pageScale="1" pageWidth="827" pageHeight="1169" math="0" shadow="0">
      <root>
        <mxCell id="0" />
        <mxCell id="1" parent="0" />
        <mxCell id="cgoTvjRIrxcL02AYCNGv-2" value="Proveedores" style="whiteSpace=wrap;html=1;align=center;fillColor=#ffe6cc;strokeColor=#d79b00;" vertex="1" parent="1">
          <mxGeometry x="120" y="180" width="100" height="40" as="geometry" />
        </mxCell>
        <mxCell id="cgoTvjRIrxcL02AYCNGv-5" value="Productos" style="whiteSpace=wrap;html=1;align=center;fillColor=#ffe6cc;strokeColor=#d79b00;" vertex="1" parent="1">
          <mxGeometry x="630" y="180" width="100" height="40" as="geometry" />
        </mxCell>
        <mxCell id="cgoTvjRIrxcL02AYCNGv-6" value="Ventas" style="shape=ext;margin=3;double=1;whiteSpace=wrap;html=1;align=center;fillColor=#ffe6cc;strokeColor=#d79b00;" vertex="1" parent="1">
          <mxGeometry x="630" y="470" width="100" height="40" as="geometry" />
        </mxCell>
        <mxCell id="cgoTvjRIrxcL02AYCNGv-13" style="edgeStyle=orthogonalEdgeStyle;rounded=0;orthogonalLoop=1;jettySize=auto;html=1;exitX=1;exitY=0.5;exitDx=0;exitDy=0;entryX=0.25;entryY=0;entryDx=0;entryDy=0;endArrow=none;endFill=0;" edge="1" parent="1" source="cgoTvjRIrxcL02AYCNGv-8" target="cgoTvjRIrxcL02AYCNGv-2">
          <mxGeometry relative="1" as="geometry" />
        </mxCell>
        <mxCell id="cgoTvjRIrxcL02AYCNGv-8" value="código" style="ellipse;whiteSpace=wrap;html=1;align=center;fillColor=#dae8fc;strokeColor=#6c8ebf;fontStyle=4" vertex="1" parent="1">
          <mxGeometry x="-20" y="80" width="100" height="40" as="geometry" />
        </mxCell>
        <mxCell id="cgoTvjRIrxcL02AYCNGv-15" style="edgeStyle=orthogonalEdgeStyle;shape=connector;rounded=0;orthogonalLoop=1;jettySize=auto;html=1;exitX=1;exitY=0.5;exitDx=0;exitDy=0;entryX=0;entryY=0;entryDx=0;entryDy=0;labelBackgroundColor=default;strokeColor=default;align=center;verticalAlign=middle;fontFamily=Helvetica;fontSize=11;fontColor=default;endArrow=none;endFill=0;" edge="1" parent="1" source="cgoTvjRIrxcL02AYCNGv-9" target="cgoTvjRIrxcL02AYCNGv-2">
          <mxGeometry relative="1" as="geometry" />
        </mxCell>
        <mxCell id="cgoTvjRIrxcL02AYCNGv-9" value="nombre" style="ellipse;whiteSpace=wrap;html=1;align=center;fillColor=#dae8fc;strokeColor=#6c8ebf;" vertex="1" parent="1">
          <mxGeometry x="-20" y="130" width="100" height="40" as="geometry" />
        </mxCell>
        <mxCell id="cgoTvjRIrxcL02AYCNGv-17" style="edgeStyle=orthogonalEdgeStyle;shape=connector;rounded=0;orthogonalLoop=1;jettySize=auto;html=1;exitX=1;exitY=0.5;exitDx=0;exitDy=0;entryX=0;entryY=1;entryDx=0;entryDy=0;labelBackgroundColor=default;strokeColor=default;align=center;verticalAlign=middle;fontFamily=Helvetica;fontSize=11;fontColor=default;endArrow=none;endFill=0;" edge="1" parent="1" source="cgoTvjRIrxcL02AYCNGv-10" target="cgoTvjRIrxcL02AYCNGv-2">
          <mxGeometry relative="1" as="geometry" />
        </mxCell>
        <mxCell id="cgoTvjRIrxcL02AYCNGv-10" value="teléfono" style="ellipse;whiteSpace=wrap;html=1;align=center;fillColor=#dae8fc;strokeColor=#6c8ebf;" vertex="1" parent="1">
          <mxGeometry x="-20" y="230" width="100" height="40" as="geometry" />
        </mxCell>
        <mxCell id="cgoTvjRIrxcL02AYCNGv-16" style="edgeStyle=orthogonalEdgeStyle;shape=connector;rounded=0;orthogonalLoop=1;jettySize=auto;html=1;exitX=1;exitY=0.5;exitDx=0;exitDy=0;entryX=0;entryY=0.5;entryDx=0;entryDy=0;labelBackgroundColor=default;strokeColor=default;align=center;verticalAlign=middle;fontFamily=Helvetica;fontSize=11;fontColor=default;endArrow=none;endFill=0;" edge="1" parent="1" source="cgoTvjRIrxcL02AYCNGv-11" target="cgoTvjRIrxcL02AYCNGv-2">
          <mxGeometry relative="1" as="geometry" />
        </mxCell>
        <mxCell id="cgoTvjRIrxcL02AYCNGv-11" value="dirección" style="ellipse;whiteSpace=wrap;html=1;align=center;fillColor=#dae8fc;strokeColor=#6c8ebf;" vertex="1" parent="1">
          <mxGeometry x="-100" y="180" width="100" height="40" as="geometry" />
        </mxCell>
        <mxCell id="cgoTvjRIrxcL02AYCNGv-18" style="edgeStyle=orthogonalEdgeStyle;shape=connector;rounded=0;orthogonalLoop=1;jettySize=auto;html=1;exitX=1;exitY=0.5;exitDx=0;exitDy=0;entryX=0.25;entryY=1;entryDx=0;entryDy=0;labelBackgroundColor=default;strokeColor=default;align=center;verticalAlign=middle;fontFamily=Helvetica;fontSize=11;fontColor=default;endArrow=none;endFill=0;" edge="1" parent="1" source="cgoTvjRIrxcL02AYCNGv-12" target="cgoTvjRIrxcL02AYCNGv-2">
          <mxGeometry relative="1" as="geometry" />
        </mxCell>
        <mxCell id="cgoTvjRIrxcL02AYCNGv-12" value="web" style="ellipse;whiteSpace=wrap;html=1;align=center;fillColor=#dae8fc;strokeColor=#6c8ebf;" vertex="1" parent="1">
          <mxGeometry x="-20" y="280" width="100" height="40" as="geometry" />
        </mxCell>
        <mxCell id="cgoTvjRIrxcL02AYCNGv-28" style="edgeStyle=orthogonalEdgeStyle;shape=connector;rounded=0;orthogonalLoop=1;jettySize=auto;html=1;exitX=1;exitY=0.5;exitDx=0;exitDy=0;entryX=0.5;entryY=0;entryDx=0;entryDy=0;labelBackgroundColor=default;strokeColor=default;align=center;verticalAlign=middle;fontFamily=Helvetica;fontSize=11;fontColor=default;endArrow=none;endFill=0;" edge="1" parent="1" source="cgoTvjRIrxcL02AYCNGv-20" target="cgoTvjRIrxcL02AYCNGv-11">
          <mxGeometry relative="1" as="geometry" />
        </mxCell>
        <mxCell id="cgoTvjRIrxcL02AYCNGv-20" value="calle" style="ellipse;whiteSpace=wrap;html=1;align=center;fillColor=#dae8fc;strokeColor=#6c8ebf;" vertex="1" parent="1">
          <mxGeometry x="-230" y="80" width="100" height="40" as="geometry" />
        </mxCell>
        <mxCell id="cgoTvjRIrxcL02AYCNGv-31" style="edgeStyle=orthogonalEdgeStyle;shape=connector;rounded=0;orthogonalLoop=1;jettySize=auto;html=1;exitX=1;exitY=0.5;exitDx=0;exitDy=0;entryX=0;entryY=0;entryDx=0;entryDy=0;labelBackgroundColor=default;strokeColor=default;align=center;verticalAlign=middle;fontFamily=Helvetica;fontSize=11;fontColor=default;endArrow=none;endFill=0;" edge="1" parent="1" source="cgoTvjRIrxcL02AYCNGv-21" target="cgoTvjRIrxcL02AYCNGv-11">
          <mxGeometry relative="1" as="geometry" />
        </mxCell>
        <mxCell id="cgoTvjRIrxcL02AYCNGv-21" value="número" style="ellipse;whiteSpace=wrap;html=1;align=center;fillColor=#dae8fc;strokeColor=#6c8ebf;" vertex="1" parent="1">
          <mxGeometry x="-230" y="130" width="100" height="40" as="geometry" />
        </mxCell>
        <mxCell id="cgoTvjRIrxcL02AYCNGv-32" style="edgeStyle=orthogonalEdgeStyle;shape=connector;rounded=0;orthogonalLoop=1;jettySize=auto;html=1;exitX=1;exitY=0.5;exitDx=0;exitDy=0;entryX=0;entryY=0.5;entryDx=0;entryDy=0;labelBackgroundColor=default;strokeColor=default;align=center;verticalAlign=middle;fontFamily=Helvetica;fontSize=11;fontColor=default;endArrow=none;endFill=0;" edge="1" parent="1" source="cgoTvjRIrxcL02AYCNGv-22" target="cgoTvjRIrxcL02AYCNGv-11">
          <mxGeometry relative="1" as="geometry" />
        </mxCell>
        <mxCell id="cgoTvjRIrxcL02AYCNGv-22" value="código_postal" style="ellipse;whiteSpace=wrap;html=1;align=center;fillColor=#dae8fc;strokeColor=#6c8ebf;" vertex="1" parent="1">
          <mxGeometry x="-230" y="180" width="100" height="40" as="geometry" />
        </mxCell>
        <mxCell id="cgoTvjRIrxcL02AYCNGv-30" style="edgeStyle=orthogonalEdgeStyle;shape=connector;rounded=0;orthogonalLoop=1;jettySize=auto;html=1;exitX=1;exitY=0.5;exitDx=0;exitDy=0;entryX=0;entryY=1;entryDx=0;entryDy=0;labelBackgroundColor=default;strokeColor=default;align=center;verticalAlign=middle;fontFamily=Helvetica;fontSize=11;fontColor=default;endArrow=none;endFill=0;" edge="1" parent="1" source="cgoTvjRIrxcL02AYCNGv-23" target="cgoTvjRIrxcL02AYCNGv-11">
          <mxGeometry relative="1" as="geometry" />
        </mxCell>
        <mxCell id="cgoTvjRIrxcL02AYCNGv-23" value="población" style="ellipse;whiteSpace=wrap;html=1;align=center;fillColor=#dae8fc;strokeColor=#6c8ebf;" vertex="1" parent="1">
          <mxGeometry x="-230" y="230" width="100" height="40" as="geometry" />
        </mxCell>
        <mxCell id="cgoTvjRIrxcL02AYCNGv-29" style="edgeStyle=orthogonalEdgeStyle;shape=connector;rounded=0;orthogonalLoop=1;jettySize=auto;html=1;exitX=1;exitY=0.5;exitDx=0;exitDy=0;entryX=0.5;entryY=1;entryDx=0;entryDy=0;labelBackgroundColor=default;strokeColor=default;align=center;verticalAlign=middle;fontFamily=Helvetica;fontSize=11;fontColor=default;endArrow=none;endFill=0;" edge="1" parent="1" source="cgoTvjRIrxcL02AYCNGv-24" target="cgoTvjRIrxcL02AYCNGv-11">
          <mxGeometry relative="1" as="geometry" />
        </mxCell>
        <mxCell id="cgoTvjRIrxcL02AYCNGv-24" value="provincia" style="ellipse;whiteSpace=wrap;html=1;align=center;fillColor=#dae8fc;strokeColor=#6c8ebf;" vertex="1" parent="1">
          <mxGeometry x="-230" y="280" width="100" height="40" as="geometry" />
        </mxCell>
        <mxCell id="cgoTvjRIrxcL02AYCNGv-49" value="Clientes" style="whiteSpace=wrap;html=1;align=center;fillColor=#ffe6cc;strokeColor=#d79b00;" vertex="1" parent="1">
          <mxGeometry x="120" y="470" width="100" height="40" as="geometry" />
        </mxCell>
        <mxCell id="cgoTvjRIrxcL02AYCNGv-50" style="edgeStyle=orthogonalEdgeStyle;rounded=0;orthogonalLoop=1;jettySize=auto;html=1;exitX=1;exitY=0.5;exitDx=0;exitDy=0;entryX=0.25;entryY=0;entryDx=0;entryDy=0;endArrow=none;endFill=0;" edge="1" parent="1" source="cgoTvjRIrxcL02AYCNGv-51" target="cgoTvjRIrxcL02AYCNGv-49">
          <mxGeometry relative="1" as="geometry" />
        </mxCell>
        <mxCell id="cgoTvjRIrxcL02AYCNGv-51" value="código" style="ellipse;whiteSpace=wrap;html=1;align=center;fillColor=#dae8fc;strokeColor=#6c8ebf;fontStyle=4" vertex="1" parent="1">
          <mxGeometry x="-20" y="370" width="100" height="40" as="geometry" />
        </mxCell>
        <mxCell id="cgoTvjRIrxcL02AYCNGv-52" style="edgeStyle=orthogonalEdgeStyle;shape=connector;rounded=0;orthogonalLoop=1;jettySize=auto;html=1;exitX=1;exitY=0.5;exitDx=0;exitDy=0;entryX=0;entryY=0;entryDx=0;entryDy=0;labelBackgroundColor=default;strokeColor=default;align=center;verticalAlign=middle;fontFamily=Helvetica;fontSize=11;fontColor=default;endArrow=none;endFill=0;" edge="1" parent="1" source="cgoTvjRIrxcL02AYCNGv-53" target="cgoTvjRIrxcL02AYCNGv-49">
          <mxGeometry relative="1" as="geometry" />
        </mxCell>
        <mxCell id="cgoTvjRIrxcL02AYCNGv-53" value="nombre" style="ellipse;whiteSpace=wrap;html=1;align=center;fillColor=#dae8fc;strokeColor=#6c8ebf;" vertex="1" parent="1">
          <mxGeometry x="-20" y="420" width="100" height="40" as="geometry" />
        </mxCell>
        <mxCell id="cgoTvjRIrxcL02AYCNGv-56" style="edgeStyle=orthogonalEdgeStyle;shape=connector;rounded=0;orthogonalLoop=1;jettySize=auto;html=1;exitX=1;exitY=0.5;exitDx=0;exitDy=0;entryX=0;entryY=0.5;entryDx=0;entryDy=0;labelBackgroundColor=default;strokeColor=default;align=center;verticalAlign=middle;fontFamily=Helvetica;fontSize=11;fontColor=default;endArrow=none;endFill=0;" edge="1" parent="1" source="cgoTvjRIrxcL02AYCNGv-57" target="cgoTvjRIrxcL02AYCNGv-49">
          <mxGeometry relative="1" as="geometry" />
        </mxCell>
        <mxCell id="cgoTvjRIrxcL02AYCNGv-57" value="dirección" style="ellipse;whiteSpace=wrap;html=1;align=center;fillColor=#dae8fc;strokeColor=#6c8ebf;" vertex="1" parent="1">
          <mxGeometry x="-100" y="470" width="100" height="40" as="geometry" />
        </mxCell>
        <mxCell id="cgoTvjRIrxcL02AYCNGv-60" style="edgeStyle=orthogonalEdgeStyle;shape=connector;rounded=0;orthogonalLoop=1;jettySize=auto;html=1;exitX=1;exitY=0.5;exitDx=0;exitDy=0;entryX=0.5;entryY=0;entryDx=0;entryDy=0;labelBackgroundColor=default;strokeColor=default;align=center;verticalAlign=middle;fontFamily=Helvetica;fontSize=11;fontColor=default;endArrow=none;endFill=0;" edge="1" parent="1" source="cgoTvjRIrxcL02AYCNGv-61" target="cgoTvjRIrxcL02AYCNGv-57">
          <mxGeometry relative="1" as="geometry" />
        </mxCell>
        <mxCell id="cgoTvjRIrxcL02AYCNGv-61" value="calle" style="ellipse;whiteSpace=wrap;html=1;align=center;fillColor=#dae8fc;strokeColor=#6c8ebf;" vertex="1" parent="1">
          <mxGeometry x="-230" y="370" width="100" height="40" as="geometry" />
        </mxCell>
        <mxCell id="cgoTvjRIrxcL02AYCNGv-62" style="edgeStyle=orthogonalEdgeStyle;shape=connector;rounded=0;orthogonalLoop=1;jettySize=auto;html=1;exitX=1;exitY=0.5;exitDx=0;exitDy=0;entryX=0;entryY=0;entryDx=0;entryDy=0;labelBackgroundColor=default;strokeColor=default;align=center;verticalAlign=middle;fontFamily=Helvetica;fontSize=11;fontColor=default;endArrow=none;endFill=0;" edge="1" parent="1" source="cgoTvjRIrxcL02AYCNGv-63" target="cgoTvjRIrxcL02AYCNGv-57">
          <mxGeometry relative="1" as="geometry" />
        </mxCell>
        <mxCell id="cgoTvjRIrxcL02AYCNGv-63" value="número" style="ellipse;whiteSpace=wrap;html=1;align=center;fillColor=#dae8fc;strokeColor=#6c8ebf;" vertex="1" parent="1">
          <mxGeometry x="-230" y="420" width="100" height="40" as="geometry" />
        </mxCell>
        <mxCell id="cgoTvjRIrxcL02AYCNGv-64" style="edgeStyle=orthogonalEdgeStyle;shape=connector;rounded=0;orthogonalLoop=1;jettySize=auto;html=1;exitX=1;exitY=0.5;exitDx=0;exitDy=0;entryX=0;entryY=0.5;entryDx=0;entryDy=0;labelBackgroundColor=default;strokeColor=default;align=center;verticalAlign=middle;fontFamily=Helvetica;fontSize=11;fontColor=default;endArrow=none;endFill=0;" edge="1" parent="1" source="cgoTvjRIrxcL02AYCNGv-65" target="cgoTvjRIrxcL02AYCNGv-57">
          <mxGeometry relative="1" as="geometry" />
        </mxCell>
        <mxCell id="cgoTvjRIrxcL02AYCNGv-65" value="código_postal" style="ellipse;whiteSpace=wrap;html=1;align=center;fillColor=#dae8fc;strokeColor=#6c8ebf;" vertex="1" parent="1">
          <mxGeometry x="-230" y="470" width="100" height="40" as="geometry" />
        </mxCell>
        <mxCell id="cgoTvjRIrxcL02AYCNGv-66" style="edgeStyle=orthogonalEdgeStyle;shape=connector;rounded=0;orthogonalLoop=1;jettySize=auto;html=1;exitX=1;exitY=0.5;exitDx=0;exitDy=0;entryX=0;entryY=1;entryDx=0;entryDy=0;labelBackgroundColor=default;strokeColor=default;align=center;verticalAlign=middle;fontFamily=Helvetica;fontSize=11;fontColor=default;endArrow=none;endFill=0;" edge="1" parent="1" source="cgoTvjRIrxcL02AYCNGv-67" target="cgoTvjRIrxcL02AYCNGv-57">
          <mxGeometry relative="1" as="geometry" />
        </mxCell>
        <mxCell id="cgoTvjRIrxcL02AYCNGv-67" value="población" style="ellipse;whiteSpace=wrap;html=1;align=center;fillColor=#dae8fc;strokeColor=#6c8ebf;" vertex="1" parent="1">
          <mxGeometry x="-230" y="520" width="100" height="40" as="geometry" />
        </mxCell>
        <mxCell id="cgoTvjRIrxcL02AYCNGv-68" style="edgeStyle=orthogonalEdgeStyle;shape=connector;rounded=0;orthogonalLoop=1;jettySize=auto;html=1;exitX=1;exitY=0.5;exitDx=0;exitDy=0;entryX=0.5;entryY=1;entryDx=0;entryDy=0;labelBackgroundColor=default;strokeColor=default;align=center;verticalAlign=middle;fontFamily=Helvetica;fontSize=11;fontColor=default;endArrow=none;endFill=0;" edge="1" parent="1" source="cgoTvjRIrxcL02AYCNGv-69" target="cgoTvjRIrxcL02AYCNGv-57">
          <mxGeometry relative="1" as="geometry" />
        </mxCell>
        <mxCell id="cgoTvjRIrxcL02AYCNGv-69" value="provincia" style="ellipse;whiteSpace=wrap;html=1;align=center;fillColor=#dae8fc;strokeColor=#6c8ebf;" vertex="1" parent="1">
          <mxGeometry x="-230" y="570" width="100" height="40" as="geometry" />
        </mxCell>
        <mxCell id="cgoTvjRIrxcL02AYCNGv-71" style="edgeStyle=orthogonalEdgeStyle;shape=connector;rounded=0;orthogonalLoop=1;jettySize=auto;html=1;exitX=1;exitY=0.5;exitDx=0;exitDy=0;entryX=0;entryY=1;entryDx=0;entryDy=0;labelBackgroundColor=default;strokeColor=default;align=center;verticalAlign=middle;fontFamily=Helvetica;fontSize=11;fontColor=default;endArrow=none;endFill=0;" edge="1" parent="1" source="cgoTvjRIrxcL02AYCNGv-70" target="cgoTvjRIrxcL02AYCNGv-49">
          <mxGeometry relative="1" as="geometry" />
        </mxCell>
        <mxCell id="cgoTvjRIrxcL02AYCNGv-70" value="Teléfono" style="ellipse;shape=doubleEllipse;margin=3;whiteSpace=wrap;html=1;align=center;fontFamily=Helvetica;fontSize=11;fillColor=#dae8fc;strokeColor=#6c8ebf;" vertex="1" parent="1">
          <mxGeometry x="-20" y="520" width="100" height="40" as="geometry" />
        </mxCell>
      </root>
    </mxGraphModel>
  </diagram>
</mxfile>
